<svg width="1205" height="375" viewBox="0 0 1205 375" fill="none" xmlns="http://www.w3.org/2000/svg">
<path d="M1016.4 2.6006C989.334 6.06727 952.801 14.2006 945.467 18.4673C944.134 19.2673 942.401 19.8006 941.601 19.8006C938.934 19.8006 907.867 36.0673 898.534 42.4673C856.801 70.7339 833.334 107.267 823.601 159.134C820.134 178.201 821.601 210.334 826.934 230.467C829.067 238.867 832.667 250.201 834.801 255.534C855.467 306.067 902.134 344.334 964.934 361.934C1006 373.534 1056.93 377.267 1098.53 371.934C1141.73 366.334 1171.47 356.867 1197.2 340.467L1204.4 335.801V305.801V275.801L1192 286.201C1164.27 309.534 1131.87 322.067 1086.4 327.134C1063.6 329.667 1054 329.667 1029.73 327.134C995.201 323.534 971.601 317.401 949.067 306.201C924.801 294.201 908.667 281.267 894.534 262.734C871.201 232.067 864.534 183.267 878.267 142.867C888.134 113.801 908.801 90.0673 938.401 73.8006C943.601 71.0006 948.001 68.2006 948.401 67.8006C949.601 66.0673 972.001 58.4673 985.334 55.0006C1010 48.7339 1024.27 47.1339 1055.73 47.1339C1087.47 47.1339 1101.33 48.7339 1126.8 55.1339C1152.53 61.6673 1174 72.7339 1192 88.7339C1198 94.0673 1203.2 98.4673 1203.6 98.4673C1204.13 98.4673 1204.4 85.0006 1204.4 68.6006V38.7339L1198.13 34.7339C1171.87 18.2006 1140.53 8.46727 1094.27 2.6006C1067.87 -0.866068 1042.8 -0.866068 1016.4 2.6006Z" fill="black"/>
<path d="M322.4 37.9341C287.334 74.4674 255.2 107.401 239.734 123.001C207.2 155.801 135.6 229.401 135.334 230.601C135.067 231.401 136.134 231.667 138 231.267C139.6 230.867 149.734 229.534 160.4 228.467C171.067 227.401 187.6 225.667 197.067 224.601L214.4 222.601L222.4 214.201C266 168.467 287.6 145.934 301.334 131.801C310.267 122.601 318.8 113.667 320.4 111.801C322 109.934 335.6 95.6674 350.8 80.0674L378.267 51.8007H399.334H420.4V124.467C420.4 192.601 420.534 197.134 422.667 197.134C425.467 197.134 467.067 191.667 469.467 191.001C470.667 190.601 471.067 171.134 471.067 99.1341V7.80072H448C435.2 7.80072 408.667 7.40072 388.934 7.00072L353.067 6.20072L322.4 37.9341Z" fill="black"/>
<path d="M480.667 28.7334L481.067 51.1334L562.134 51.5334L643.067 51.8001V211.133V370.467H667.734H692.4V211.133V51.8001H773.734H855.067V29.1334V6.46678H667.734H480.4L480.667 28.7334Z" fill="black"/>
<path d="M455.067 239.935C448.8 240.468 438.534 241.268 432.134 241.801L420.4 242.868V305.935V369.135H445.734H471.067V303.801C471.067 242.335 470.934 238.468 468.8 238.735C467.467 238.735 461.334 239.268 455.067 239.935Z" fill="black"/>
<path d="M148.4 262.601C138.533 263.268 123.467 264.335 115.067 265.001L99.7333 266.335L85.7333 280.735C78.1333 288.601 55.6 311.668 35.8667 331.801L0 368.468L34.5333 368.868L69.0667 369.135L110.133 328.201C132.8 305.535 156.667 281.268 163.333 274.068L175.333 261.135L170.933 261.268C168.4 261.401 158.267 262.068 148.4 262.601Z" fill="black"/>
</svg>
